<svg width="7" height="12" viewBox="0 0 7 12" fill="none" xmlns="http://www.w3.org/2000/svg">
<path d="M6.46021 10.5405L6.4602 10.5405L1.91941 6.00028L6.4602 1.4601L6.46021 1.46009C6.58216 1.33814 6.65067 1.17274 6.65067 1.00028C6.65067 0.827813 6.58216 0.662413 6.46021 0.540462C6.33826 0.418511 6.17286 0.35 6.00039 0.35C5.82793 0.35 5.66253 0.418511 5.54058 0.540462L0.540636 5.5404C0.540617 5.54042 0.540597 5.54044 0.540577 5.54046C0.48017 5.60082 0.432247 5.67248 0.399548 5.75137C0.366837 5.83028 0.35 5.91486 0.35 6.00028C0.35 6.0857 0.366837 6.17028 0.399548 6.24919C0.432247 6.32807 0.48017 6.39974 0.540577 6.46009C0.540597 6.46011 0.540617 6.46013 0.540636 6.46015L5.54058 11.4601C5.60096 11.5205 5.67265 11.5684 5.75154 11.6011C5.83044 11.6337 5.915 11.6506 6.00039 11.6506C6.08579 11.6506 6.17035 11.6337 6.24924 11.6011C6.32814 11.5684 6.39983 11.5205 6.46021 11.4601C6.52059 11.3997 6.56849 11.328 6.60117 11.2491C6.63385 11.1702 6.65067 11.0857 6.65067 11.0003C6.65067 10.9149 6.63385 10.8303 6.60117 10.7514C6.56849 10.6725 6.52059 10.6008 6.46021 10.5405Z" fill="black" stroke="black" stroke-width="0.3"/>
</svg>
