<svg width="7" height="12" viewBox="0 0 7 12" fill="none" xmlns="http://www.w3.org/2000/svg">
<path d="M0.53979 10.5405L0.539797 10.5405L5.08059 6.00028L0.539797 1.4601L0.53979 1.46009C0.41784 1.33814 0.349328 1.17274 0.349328 1.00028C0.349328 0.827813 0.41784 0.662413 0.53979 0.540462C0.661741 0.418511 0.827143 0.35 0.999607 0.35C1.17207 0.35 1.33747 0.418511 1.45942 0.540462L6.45936 5.5404C6.45938 5.54042 6.4594 5.54044 6.45942 5.54046C6.51983 5.60082 6.56775 5.67248 6.60045 5.75137C6.63316 5.83028 6.65 5.91486 6.65 6.00028C6.65 6.0857 6.63316 6.17028 6.60045 6.24919C6.56775 6.32807 6.51983 6.39974 6.45942 6.46009C6.4594 6.46011 6.45938 6.46013 6.45936 6.46015L1.45942 11.4601C1.39904 11.5205 1.32735 11.5684 1.24846 11.6011C1.16956 11.6337 1.085 11.6506 0.999607 11.6506C0.91421 11.6506 0.82965 11.6337 0.750755 11.6011C0.671862 11.5684 0.600175 11.5205 0.53979 11.4601C0.479406 11.3997 0.431508 11.328 0.398828 11.2491C0.366149 11.1702 0.349328 11.0857 0.349328 11.0003C0.349328 10.9149 0.366149 10.8303 0.398828 10.7514C0.431508 10.6725 0.479406 10.6008 0.53979 10.5405Z" fill="black" stroke="black" stroke-width="0.3"/>
</svg>
